<svg xmlns="http://www.w3.org/2000/svg" viewBox="0 0 256 256" fill="none" role="img" aria-label="unoSignature">
  <defs>
    <linearGradient id="bg" x1="52" y1="28" x2="204" y2="228" gradientUnits="userSpaceOnUse">
      <stop stop-color="#3A4DB5"/>
      <stop offset="1" stop-color="#222E6E"/>
    </linearGradient>
    <linearGradient id="fold" x1="172" y1="54" x2="200" y2="82" gradientUnits="userSpaceOnUse">
      <stop stop-color="#ECEFF6"/>
      <stop offset="1" stop-color="#C5CDE0"/>
    </linearGradient>
    <filter id="paper" x="44" y="40" width="168" height="196" filterUnits="userSpaceOnUse" color-interpolation-filters="sRGB">
      <feDropShadow dx="0" dy="4" stdDeviation="5" flood-color="#141D52" flood-opacity="0.28"/>
    </filter>
  </defs>

  <rect width="256" height="256" rx="56" fill="url(#bg)"/>

  <g filter="url(#paper)">
    <rect x="58" y="46" width="140" height="174" rx="12" fill="#FFFFFF"/>
    <path d="M172 46H196V70L172 46Z" fill="url(#fold)"/>
    <path d="M172 46L196 70H172V46Z" fill="#FFFFFF" opacity="0.22"/>
  </g>

  <path
    d="M80 124C80 100 104 94 114 108C122 118 110 130 98 126C86 122 92 108 106 108C124 108 138 120 134 134C130 146 116 142 122 128C128 114 148 118 160 124C170 129 166 136 158 134"
    stroke="#243074"
    stroke-width="7.5"
    stroke-linecap="round"
    stroke-linejoin="round"
  />
  <path
    d="M86 146C108 158 132 154 154 140"
    stroke="#243074"
    stroke-width="5.5"
    stroke-linecap="round"
  />

  <circle cx="180" cy="186" r="27" fill="#2EA043"/>
  <circle cx="180" cy="186" r="27" stroke="#FFFFFF" stroke-width="4"/>
  <path
    d="M167 186L176 195L195 173"
    stroke="#FFFFFF"
    stroke-width="6.5"
    stroke-linecap="round"
    stroke-linejoin="round"
  />
</svg>
